# xmcd
#
# Track frame offsets:
#	150
#	17258
#	30048
#
# Disc length: 627 seconds
#
# Revision: 0
# Processed by: cddbd v1.5.1PL0 Copyright (c) Steve Scherf et al.
# Submitted via: dBpowerAMP V4.0
#
DISCID=0b027103
DTITLE=Mickey 3d - Respire
DYEAR=1900
DGENRE=
TTITLE0=Respire
TTITLE1=Rien du tout
TTITLE2=Respire 02
EXTD=Mickey 3d
EXTT0=
EXTT1=
EXTT2=
PLAYORDER=
